<svg width="32" height="32" viewBox="0 0 32 32" fill="none" xmlns="http://www.w3.org/2000/svg">
  <rect width="32" height="32" rx="16" fill="#25D366"/>
  <path d="M16 7C11.03 7 7 11.03 7 16C7 17.85 7.6 19.57 8.66 21.01L7 25L11.09 23.39C12.47 24.13 14.17 24.6 16 24.6C20.97 24.6 25 20.57 25 16C25 11.03 20.97 7 16 7ZM16 22.6C14.41 22.6 12.89 22.18 11.59 21.41L11.31 21.25L9.13 22.13L9.97 20.01L9.81 19.73C8.93 18.43 8.4 16.77 8.4 15C8.4 11.13 11.73 7.8 16 7.8C20.27 7.8 23.6 11.13 23.6 15C23.6 18.87 20.27 22.2 16 22.2V22.6ZM19.29 17.29C19.11 17.11 18.85 17.03 18.6 17.09C18.36 17.15 18.13 17.29 17.97 17.5C17.81 17.71 17.75 17.97 17.81 18.21C17.87 18.46 18.01 18.7 18.21 18.86C18.41 19.02 18.67 19.08 18.91 19.02C19.16 18.96 19.39 18.82 19.55 18.61C19.71 18.4 19.77 18.14 19.71 17.89C19.65 17.65 19.51 17.41 19.29 17.29ZM16.5 15.5C16.5 15.22 16.28 15 16 15C15.72 15 15.5 15.22 15.5 15.5C15.5 15.78 15.72 16 16 16C16.28 16 16.5 15.78 16.5 15.5ZM14.5 13.5C14.5 13.22 14.28 13 14 13C13.72 13 13.5 13.22 13.5 13.5C13.5 13.78 13.72 14 14 14C14.28 14 14.5 13.78 14.5 13.5Z" fill="white"/>
</svg>
